<svg xmlns="http://www.w3.org/2000/svg" width="172" height="175" viewBox="0 0 172 175"><g fill="none" fill-rule="nonzero"><g transform="translate(5.738 41.663)"><path fill="#725D56" d="M26.395 93.88s-2.445-.899-2.57-4.616c-.124-3.717.874-17.064 6.886-19.11l3.692 13.771-2.57 7.934M45.106 29.164s-.699-6.91-.4-8.158c.325-1.247 1.573-3.368 1.797-3.567.225-.2-.25.798.35.873.598.1 2.245-2.345 3.492-4.142.873-1.247 3.518-3.517 5.015-4.74.299-.25.723.025.648.4-.15.598-.124 1.122.424.873 1.123-.5 2.994-2.445 4.391-2.844 1.397-.4 3.842-1.123 3.842-1.123l-1.272 6.536"></path><path fill="#444560" d="M43.484 46.528s-1.172 12.948 2.32 17.09c3.493 4.14 8.707 3.317 8.707 3.317V64.79s-5.862.424-7.659-3.393c-1.796-3.817-1.472-16.166-1.472-16.166M84.224 30.412s-.823 7.31 3.144 15.517c3.967 8.208-2.794 19.41-5.19 20.083-2.394.674-5.513.923-5.513.923v-1.172s4.74.075 6.312-3.318c1.572-3.393 4.64-8.882 3.992-11.7-.674-2.82-.898-5.115-2.146-6.412-1.247-1.298-2.495-10.753-2.37-13.422"></path><path fill="#E88764" d="M94.129 9.53s-2.246-.449-4.54 0c-2.296.45-4.766.998-4.79 2.32-.026 1.347 5.862.998 5.862.998l4.291-.374"></path><path fill="#FFB54D" d="M78.387 66.461s7.833.699 8.607 1.298c.773.599 1.621 4.69 2.22 6.287.599 1.596 9.206 18.96 9.755 23.276.549 4.291.3 9.38 1.297 13.297.998 3.917 2.37 11.75 2.545 12.375v.025c.15.673-.4 1.322-1.123 1.272-2.919-.225-10.977-.624-16.191.848-6.462 1.846-30.96 8.283-37.946 7.61-.125 0-.25-.026-.374-.05-6.711-.899-12.948-8.109-11.002-14.62 1.447-4.79 3.467-11.401 5.314-16.915 3.293-9.904 4.29-25.721 4.14-27.493-.149-1.77-.997-3.068-.448-3.617.549-.549 3.667-.823 5.064-1.297 1.372-.45 2.695-1.772 2.695-1.772"></path><path fill="#FFC692" d="M82.154 34.279s1.073 6.76.773 10.378c-.3 3.617-1.696 9.28-2.295 10.129-.624.848-1.846.449-1.771 2.844.074 2.37-.699 7.384 0 12.524.698 5.14-3.294 14.67-6.138 15.892-2.844 1.222-5.688.698-11.45-3.543-5.764-4.216-8.608-12.973-8.907-14.82-.3-1.845.624-10.602 0-12.598-.624-1.996-2.77-4.466-3.767-6.91-.998-2.47 0-6.612 0-6.612l10.203-9.056s.075 1.996 3.618 3.069c3.543 1.073 5.439-.923 5.663-1.697.25-.773 2.844-5.837 3.168-5.912.3-.075 1.298-.3 1.547-.923.225-.624.848-2.146 1.223-2.22.374-.076 1.546.149 1.771.997.225.848-1.721 3.992-1.796 5.364-.075 1.372 2.12 3.368 4.416 3.692 2.295.325 3.742-.598 3.742-.598z"></path><path fill="#E88764" d="M80.607 54.786s-4.59 1.821-10.03 2.07c-5.438.275-10.752-1.546-12.224-2.769-1.472-1.222-2.694-8.557-2.57-9.28.125-.724 2.146-4.316 2.146-4.716 0-.399-.948-2.42.55-2.968 1.471-.55 6.585 1.671 8.007.948 1.422-.749 2.27-2.894 2.595-3.169.3-.274.649-.599.748-.998.1-.399-1.247-1.197-.748-2.17.499-.973 1.921-3.418 3.044-3.293 1.097.124 1.846 2.744 1.846 2.744s1.896 3.143 3.068 3.917c1.173.773 5.39 1.172 5.39 1.172s-.25-3.792-.65-4.34l-6.536-8.982L59.227 24.1l-12.25 19.833s.225 2.346.474 2.87c.25.523.35 1.696.674 2.22.324.524 2.544 4.366 3.418 5.389.873 1.022.823 5.064.798 9.156 0 0 3.967-3.643 5.663-3.693 1.697-.05 6.81 2.42 10.503 2.295 3.693-.124 3.443-1.546 5.663-3.168 2.22-1.597 6.262-3.867 6.437-4.216z"></path><path fill="#68697F" d="M83.6 18.561s-1.122-1.946-2.669-2.145c-1.546-.2-2.769 0-2.769 0s-.873 3.767-3.842 4.016c-2.969.25-4.565-2.12-4.515-2.27.05-.15 9.654-7.434 9.654-7.434s3.244 1.97 5.314 2.12c2.071.15 4.54-.998 4.54-.998"></path><path fill="#444560" d="M99.418 27.518l-13.921 1.546s-2.994 5.04-3.343 5.215c-.374.174-.923 1.322-4.815.349-3.892-.973-3.693-2.994-3.618-3.418.075-.45 2.27-4.99 2.071-5.364-.2-.374-1.721-1.222-1.996-.848-.274.4-.748 1.871-.998 2.42-.224.574-1.547.574-1.547.574s-2.943 6.71-4.266 7.534c-1.322.823-6.112.748-7.684-1.871-1.571-2.62-3.417-2.245-3.767-3.193-.349-.973.25-11.052.4-11.152.15-.1 4.715-5.09 4.715-5.09l1.397-1.746s3.917-.374 4.34 0c.4.374 12.55 1.148 12.55 1.148l9.006 3.268 11.875 3.942 3.842 1.696"></path><path fill="#68697F" d="M92.357 11.451c-.224-.175-2.245.374-3.018.4-.774.024-5.688 4.066-5.738 6.71-.05 2.67 3.742 4.815 6.137 4.341 2.395-.449 2.77-.723 3.069-.673.299.05 2.295 2.045 4.615 2.145 2.32.1 4.516-1.272 4.516-1.272"></path><path fill="#FFC692" d="M.4 76.665C.024 74.844-.076 72.948.224 71.8c.673-2.445 8.831-11.65 11.151-13.646 2.32-1.996 31.41-22.453 32.208-23.327.774-.873 2.32-10.203 2.67-11.625.349-1.422 2.07-1.896 3.417-2.894 1.348-.998 4.94-6.038 6.587-7.06 1.671-1.023 2.395-.65 3.093-1.073.699-.424 3.094-3.144 3.094-3.144-.125.3-.324.848-.524 1.472l.923-.05s.15 1.846 0 2.37-1.173 2.695-2.146 2.67h-.15c-.099.598-.099.848-.099.848-.923 1.247-3.942 7.01-3.992 7.385-.075.374-.174 1.846-.025 2.719.15.898-.299 1.671-.374 2.046-.424 2.345 7.859-2.47 9.655-2.445 1.796.025 1.672.623 2.17 1.397.475.798.125.973-1.92 1.996-2.071 1.023-5.165 3.442-6.687 4.166-1.546.723-1.197 1.422-2.52 3.592-1.322 2.17-3.617 3.094-5.388 4.316-1.796 1.248-10.104 8.707-11.227 10.678-.598 1.048-6.985 9.38-13.222 17.164l1.497.749c3.542 1.771 7.51 1.696 7.51 1.696S33.78 97.297 33.08 97.622c-.698.299-.449-1.323-4.216-4.316-3.767-2.994-18.586-5.838-22.204-7.909-1.272-.748-2.445-2.046-3.393-3.443a6.426 6.426 0 0 1-.773-.549c-.898-.673-1.672-2.67-2.096-4.74zM107.401 18.162s-9.13 8.532-10.278 8.907c-1.148.374-5.29-.075-6.462-.375-1.148-.299-4.466-.025-5.14.524-.673.55-.922 1.547-.548 1.921.374.374 1.297.374 2.77.848 1.446.45.623 1.622 4.14 2.071 3.518.45 6.687.549 7.285.699.624.15 1.772 1.122 4.366 1.297 2.62.15 4.765 1.247 5.29 1.547.548.3 7.758 6.362 11.825 10.129 4.066 3.767 6.062 8.831 8.607 12.299 2.544 3.468 4.615 6.611 4.615 6.611s-9.755 2.92-16.291 3.767c-6.536.849-13.572.225-15.343.45-1.771.224-5.464.773-5.464.773s6.537 5.987 8.907 11.975c2.37 5.987 1.621 15.443 1.621 15.443s4.441-8.458 13.273-9.98c8.831-1.521 24.349-9.53 28.415-13.047 4.067-3.518 5.838-7.285 5.29-10.13-.55-2.843-13.123-19.359-22.803-25.496-9.68-6.137-14.52-13.297-14.52-13.297s-6.985-4.142-7.26-5.214c-.274-1.073-1.197-2.695-1.197-2.695l-1.098.973z"></path><path fill="#E88764" d="M75.867 37.197s.873-1.172.773-1.596c-.1-.424-2.62-1.273-2.969-1.372-.349-.1-2.095.823-3.043 1.023-.948.2-1.397.723-1.497 1.222-.1.499.05 1.123.923 1.222.873.1 2.969-.349 3.543-.25.573.1 1.172.4 1.596.275.424-.124.674-.524.674-.524zM93.33 10.728s-2.719 1.047-2.669 2.12c.05 1.073 1.422 1.622 2.195 1.223.774-.4 2.096-1.223 2.096-1.223"></path><path fill="#68697F" d="M79.16 10.254s3.143-.175 3.268 2.42c.125 2.594-2.594 2.968-4.041 2.644-1.447-.324-1.847-2.47-1.847-2.47"></path><path fill="#E88764" d="M85.522 27.218c.698-.549 3.991-.848 5.139-.524 1.148.3 5.289.774 6.462.375.948-.325 7.384-6.212 9.555-8.233 0 0-.4 3.842-.923 5.588-.5 1.746-1.647 2.82-2.146 4.341-.524 1.547 2.146 2.919 2.146 2.919v1.372s2.32-.3 4.365 0c2.046.3 12.325 8.408 16.017 11.277 3.692 2.869 10.453 7.783 17.214 9.305 1.447.325 3.044.574 4.665.724 3.568 4.415 6.063 8.233 6.312 9.48.55 2.844-1.222 6.611-5.289 10.129-4.066 3.542-19.584 11.526-28.415 13.048-8.832 1.546-13.273 9.979-13.273 9.979s.774-9.455-1.621-15.443c-2.37-5.988-8.907-11.975-8.907-11.975s1.971-.3 3.717-.524c.25.624.574 1.322.874 1.771.773 1.073 3.542 2.62 5.987 3.069 2.47.449 5.663.923 11.202-.624 5.538-1.497 13.621-8.158 13.621-8.158 1.048-.3 1.697-.499 1.697-.499s-2.07-3.143-4.616-6.61c-2.544-3.469-4.54-8.533-8.607-12.3-4.066-3.767-11.301-9.83-11.825-10.13-.549-.299-2.694-1.396-5.289-1.546-2.62-.15-3.767-1.123-4.366-1.297-.624-.15-3.767-.225-7.285-.699-3.542-.449-2.694-1.621-4.141-2.07-1.447-.45-2.37-.45-2.77-.849-.423-.349-.199-1.347.5-1.896z"></path><path fill="#444560" d="M109.97 13.796s-.623 2.645-1.746 3.643c-1.122.998-5.538 5.04-6.286 5.688-.749.648-5.714 1.122-8.308-1.647-2.62-2.769-1.896-6.087-1.846-6.86.05-.774 1.422-1.897 1.422-1.897s-.15-1.297.1-2.02c.249-.699 3.842-5.015 3.842-5.015"></path><path fill="#68697F" d="M107.725 6.387s2.57 3.418 2.395 6.511c-.15 3.069-3.218 4.466-5.837 4.566-2.62.1-5.788-1.123-7.535-4.092-1.746-2.969-.349-6.561.424-7.634.774-1.073 4.541-1.896 5.863-1.696 1.298.2 4.69 2.345 4.69 2.345z"></path><path fill="#CDCDD7" d="M107.027 15.318s2.52-1.148 2.02-4.39c-.523-3.22-3.068-4.916-4.665-5.49-1.596-.573-4.39-.523-5.688.624-1.272 1.123-1.522 4.142-1.522 4.142"></path><ellipse cx="102.708" cy="11.451" fill="#6D9FEB" rx="4.815" ry="5.838" transform="rotate(-55.986 102.708 11.451)"></ellipse><path fill="#FF9400" d="M41.538 101.164l.075-.224c5.988 2.694 20.532 7.933 32.233 7.484 9.455-.35 20.358-4.516 25.422-7.884.225 3.468 1.048 7.46 1.821 10.454.998 3.916 1.597 11.376 1.747 12v.025c.15.673-.4 1.322-1.123 1.272-2.919-.225-10.977-.624-16.191.848-6.462 1.846-30.96 8.283-37.946 7.61-.125 0-.25-.026-.374-.05-6.711-.899-12.948-8.109-11.002-14.62 1.471-4.765 3.492-11.401 5.338-16.915z"></path><path fill="#444560" d="M79.36 8.083s.025 2.72-.824 3.967c-.873 1.247-4.191 6.212-4.74 7.01-.549.799-5.264 2.445-8.457.374-3.194-2.07-3.293-5.463-3.418-6.237-.125-.748-.075-2.47-.075-2.47s.549-1.496.649-1.67c.324-.674 2.544-5.764 2.544-5.764"></path><path fill="#68697F" d="M75.418 1.422s3.293 2.72 3.892 5.738c.573 3.019-2.071 5.09-4.59 5.813-2.52.723-5.888.274-8.283-2.195-2.395-2.47-1.897-6.287-1.423-7.51.5-1.222 3.967-2.919 5.29-3.019 1.297-.124 5.114 1.173 5.114 1.173z"></path><path fill="#CDCDD7" d="M76.865 10.254s2.17-1.722.923-4.74c-1.248-3.02-4.142-4.042-5.838-4.217-1.671-.174-4.39.55-5.364 1.946-.973 1.397-.499 4.391-.499 4.391"></path><ellipse cx="71.74" cy="7.544" fill="#6D9FEB" rx="4.815" ry="5.838" transform="rotate(-69.72 71.74 7.544)"></ellipse><path fill="#444560" d="M86.994 67.759s10.652.224 12.25 1.497c1.596 1.272 10.028 11.102 9.255 24.623-.774 13.522-3.094 18.587-3.767 19.21-.674.624-2.92 1.797-2.92 1.797s-2.619-11.501-3.118-15.244c-.499-3.742-9.006-21.555-9.255-23.576-.225-1.995-2.445-8.307-2.445-8.307zM45.58 69.755s-8.333 1.222-9.405 1.621c-1.073.374-1.148 17.738-2.545 23.027-1.372 5.29-3.842 15.742-3.767 17.663.075 1.921.549 3.618 1.222 4.765.699 1.148 4.64 2.92 4.815 2.32.175-.598 2.794-2.02 3.318-4.315.55-2.296 5.863-18.113 6.337-21.88.499-3.767.674-20.806.574-21.655-.075-.848-.549-1.546-.549-1.546z"></path><path fill="#FFB54D" d="M91.335 110.37s-9.63 3.168-17.614 3.268c-7.983.1-19.559-1.646-19.559-1.646s5.638 5.214 16.49 5.313c10.853.125 20.683-6.935 20.683-6.935z"></path><path fill="#E88764" d="M.25 71.8C.922 69.355 9.08 60.15 11.4 58.154c1.772-1.547 19.56-14.096 27.967-20.183 3.093.274 7.908.374 10.403-1.996 3.493-3.318 3.892-11.75 4.391-12.35.225-.274 2.22-2.095 4.416-4.066-1.048 1.921-2.07 3.967-2.12 4.191-.076.375-.175 1.847-.026 2.72.15.898-.299 1.671-.374 2.046-.424 2.345 7.859-2.47 9.655-2.445 1.796.025 1.672.623 2.17 1.397.475.798.125.973-1.92 1.996-2.071 1.022-5.165 3.442-6.687 4.166-1.546.723-1.197 1.422-2.52 3.592-1.322 2.17-3.617 3.094-5.388 4.316-1.796 1.248-10.104 8.707-11.227 10.678-.598 1.048-6.985 9.38-13.222 17.164l1.497.749c3.542 1.771 7.51 1.696 7.51 1.696s-.899 25.946-1.573 26.246c-.698.299-1.696-1.747-5.463-4.74-3.767-2.994-18.586-5.838-22.204-7.909-1.272-.748-2.445-2.046-3.393-3.443a6.426 6.426 0 0 1-.773-.549c-.873-.698-1.647-2.694-2.07-4.765-.425-1.821-.525-3.717-.2-4.865z"></path><path fill="#FFC692" d="M26.894 69.405s-6.187 8.059-6.412 8.133c-.224.075 2.395-1.147 6.412-1.546 4.017-.375 8.856-.175 8.856-.175l.15-3.967s-7.484-1.671-9.006-2.445z"></path><path fill="#E88764" d="M68.083 85.522s-5.464-5.738-7.01-7.984c-1.547-2.245-4.017-7.31-4.616-7.384-.598-.075 4.54 10.179 4.666 10.777.15.6.124 1.597.124 1.597s4.341 3.792 7.834 4.042c0-.025-.674-.724-.998-1.048z" opacity=".5"></path><path fill="#FFC692" d="M58.079 34.628s-.998 3.243-3.393 4.765c-2.395 1.547-6.786 5.114-6.786 5.114s5.763-5.413 7.185-6.76c1.422-1.323 2.994-3.12 2.994-3.12z"></path><path fill="#444560" d="M59.276 18.337s1.822-3.169 1.572-3.668c-.224-.474.324-2.37.474-2.819.125-.474.599-1.322.599-1.322s3.792 3.992 3.617 4.166c-.174.175 0 2.77 0 2.77"></path><path fill="#68697F" d="M76.64 14.82s-3.592 6.835-4.066 7.508c-.474.674-4.117 2.595-7.984 0 0 0 5.738 1.398 7.135-.723 1.398-2.146 4.915-6.786 4.915-6.786z"></path><path fill="#FFF" d="M83.55 85.746c.275-.698-8.107 6.088-13.271 6.088-5.165 0-14.62-5.29-14.62-5.29s7.859 8.508 13.946 8.358c6.087-.15 13.098-6.985 13.946-9.156z" opacity=".5"></path><path fill="#FF9400" d="M56.407 93.93c.5.324 5.763 5.787 10.853 6.61 0 0-6.337.075-9.53-2.52-3.169-2.594-3.917-4.84-4.017-5.438-.075-.574 2.694 1.347 2.694 1.347z"></path><path fill="#444560" d="M30.936 107.775s7.01-9.605 4.964-35.925l-2.295-.524s1.671 3.119 1.547 4.291c-.125 1.173-2.12 19.859-3.044 21.705-.948 1.821-1.172 8.757-1.172 10.453z"></path><path fill="#444560" d="M36.973 75.343s9.206-2.395 9.18-4.067c-.024-1.671-.922-2.095-1.67-2.295-.75-.2-5.564 1.322-6.462 1.472-.898.15-2.32-.15-3.169 0-.823.15-1.272.848-1.272.848s2.62 4.266 3.393 4.042z"></path><path fill="#FFB54D" d="M33.605 71.326l-2.87-1.172s-.448 10.927-1.546 15.542c-1.122 4.64-2.67 7.51-2.77 8.183-.099.674 5.69 3.443 5.69 3.443s8.78-21.93 1.496-25.996zM99.243 69.256l4.366-1.497s6.886 6.836 7.11 15.368c.225 8.532-2.395 13.397-2.395 13.397s1.023-14.969-9.08-27.268zM49.322 114.886s6.312 4.59 9.63 5.463c3.318.898 7.61 1.223 8.283 1.547.698.324-.998 3.543-8.956 2.67-7.959-.899-8.957-9.68-8.957-9.68z"></path><path fill="#FFC692" d="M76.64 35.626s-1.596-2.745-2.12-3.568c-.55-.823-1.023-2.095-1.023-2.095s-1.347 1.646-1.123 2.045c.225.424 1.322 1.472 1.322 1.472"></path><path fill="#FFF" d="M71.725 2.62s5.015.324 5.689 4.914c0 0 .374.599-2.17 0-2.546-.598-3.519-1.796-3.519-1.796s-2.02 0-2.644-.524c-.624-.524-.998-1.846-.998-1.846s1.697-1.222 3.642-.748zM98.62 14.195s.473-2.37 2.22-2.744a2.976 2.976 0 0 1 2.794.848s.225-1.397 1.597-1.77c1.372-.375 2.968.648 2.993 1.321 0 0 .849 4.142-3.792 4.715-4.64.574-5.813-2.37-5.813-2.37z"></path></g><path fill="#FFF" d="M74.096 86.07s1.995-1.746 4.19-1.82c2.196-.075 3.618 1.696 3.444 2.045-.175.35-5.788-.05-6.661 0-.849.075-.973-.224-.973-.224z"></path><path fill="#E88764" d="M80.582 87.692s-6.137-.2-6.486 0c-.35.2 2.17 1.821 4.316 1.722 2.145-.1 3.043-1.273 3.043-1.447 0-.175-.873-.275-.873-.275z" opacity=".5"></path><path fill="#725D56" d="M54.686 85.347s-.175 3.119-.324 3.543c-.15.424-.25 2.345-.474 2.594-.225.25-.3-.424-.824-1.497-.524-1.072-.648-2.794-.648-2.794l2.27-1.846z"></path><g fill="#FFF"><path d="M31.634 71.177s-26.17.424-28.116 0c-1.946-.424-3.842-3.119-3.194-5.539.649-2.42 4.192-2.495 4.192-2.495s-.524-5.189 5.164-8.058c5.688-2.869 8.357 0 8.357 0s4.965-3.168 10.528-1.92c5.564 1.247 6.662 6.51 6.287 8.357-.374 1.846 3.992 2.57 3.693 5.912-.3 3.343-3.019 3.743-6.91 3.743zM132.649 47.127s-.6-7.11 7.284-9.031c7.909-1.921 9.73 2.494 9.73 2.494s7.135-2.37 11.227 1.772c4.091 4.141 2.57 6.586 2.57 6.586s6.536 1.073 7.434 4.091c.898 3.02-.749 3.967-4.566 4.192-3.792.224-29.164-.674-32.183-.998-3.043-.325-6.461-1.946-5.738-5.539.749-3.567 4.242-3.567 4.242-3.567zM23.351 145.996s-1.372-5.614-5.912-6.986c-4.54-1.372-5.165 2.32-5.913 1.846-.748-.474-1.97-2.045-4.715-1.122-2.744.948-2.645 4.24-3.443 4.266-.798.025-2.62.174-3.069 1.996-.449 1.82 1.223 3.193 2.894 3.193 1.672 0 21.256.45 21.88 0 .574-.474.723-2.595-1.722-3.193zM102.137 96.449s3.543-4.69 6.337-5.264c2.77-.574 5.064 2.62 5.663 2.32.599-.3 1.722-1.023 4.366-.374 2.644.649 2.62 2.794 2.944 4.166.3 1.372-2.42 2.27-4.79 2.27s-15.418 1.073-15.867 0c-.474-1.072-.773-2.295 1.347-3.118zM63.842 30.162s42.91.724 46.079 0c3.168-.723 6.312-5.14 5.239-9.08-1.073-3.943-6.886-4.117-6.886-4.117s.849-8.508-8.482-13.198c-9.33-4.69-13.696 0-13.696 0S77.987-1.397 68.856.624c-9.13 2.02-10.927 10.652-10.328 13.696.599 3.044-6.536 4.216-6.062 9.68.474 5.464 5.014 6.162 11.376 6.162z"></path></g><path fill="#FF9400" d="M52.416 174.262s-7.584-2.92-9.605-3.019c-2.046-.125-3.518 0-3.967 0-.449 0 1.123-3.742 1.297-4.865.175-1.122-.748-2.145 0-3.168.749-1.023 1.497-2.395 1.497-2.395"></path></g></svg>